<svg xmlns="http://www.w3.org/2000/svg" version="1.1" xmlns:xlink="http://www.w3.org/1999/xlink" xmlns:svgjs="http://svgjs.dev/svgjs" width="1440" height="800" preserveAspectRatio="none" viewBox="0 0 1440 800">
    <g mask="url(&quot;#SvgjsMask4047&quot;)" fill="none">
        <rect width="1440" height="800" x="0" y="0" fill="url(&quot;#SvgjsLinearGradient4048&quot;)"></rect>
        <path d="M113.03 263.33L171.92 297.33L171.92 365.33L113.03 399.33L54.14 365.33L54.14 297.33zM113.03 467.33L171.92 501.33L171.92 569.33L113.03 603.33L54.14 569.33L54.14 501.33zM54.14 569.33L113.03 603.33L113.03 671.33L54.14 705.33L-4.75 671.33L-4.75 603.33zM54.14 773.33L113.03 807.33L113.03 875.33L54.14 909.33L-4.75 875.33L-4.75 807.33zM230.81 59.33L289.71 93.33L289.71 161.33L230.81 195.33L171.92 161.33L171.92 93.33zM171.92 773.33L230.81 807.33L230.81 875.33L171.92 909.33L113.03 875.33L113.03 807.33zM289.71 365.33L348.6 399.33L348.6 467.33L289.71 501.33L230.81 467.33L230.81 399.33zM289.71 773.33L348.6 807.33L348.6 875.33L289.71 909.33L230.81 875.33L230.81 807.33zM407.49 -42.67L466.38 -8.67L466.38 59.33L407.49 93.33L348.6 59.33L348.6 -8.67zM466.38 263.33L525.27 297.33L525.27 365.33L466.38 399.33L407.49 365.33L407.49 297.33zM466.38 671.33L525.27 705.33L525.27 773.33L466.38 807.33L407.49 773.33L407.49 705.33zM407.49 773.33L466.38 807.33L466.38 875.33L407.49 909.33L348.6 875.33L348.6 807.33zM525.27 161.33L584.16 195.33L584.16 263.33L525.27 297.33L466.38 263.33L466.38 195.33zM701.95 467.33L760.84 501.33L760.84 569.33L701.95 603.33L643.05 569.33L643.05 501.33zM643.05 773.33L701.95 807.33L701.95 875.33L643.05 909.33L584.16 875.33L584.16 807.33zM760.84 365.33L819.73 399.33L819.73 467.33L760.84 501.33L701.95 467.33L701.95 399.33zM819.73 467.33L878.62 501.33L878.62 569.33L819.73 603.33L760.84 569.33L760.84 501.33zM760.84 773.33L819.73 807.33L819.73 875.33L760.84 909.33L701.95 875.33L701.95 807.33zM878.62 161.33L937.51 195.33L937.51 263.33L878.62 297.33L819.73 263.33L819.73 195.33zM878.62 365.33L937.51 399.33L937.51 467.33L878.62 501.33L819.73 467.33L819.73 399.33zM937.51 467.33L996.4 501.33L996.4 569.33L937.51 603.33L878.62 569.33L878.62 501.33zM878.62 569.33L937.51 603.33L937.51 671.33L878.62 705.33L819.73 671.33L819.73 603.33zM937.51 671.33L996.4 705.33L996.4 773.33L937.51 807.33L878.62 773.33L878.62 705.33zM878.62 773.33L937.51 807.33L937.51 875.33L878.62 909.33L819.73 875.33L819.73 807.33zM1055.29 263.33L1114.19 297.33L1114.19 365.33L1055.29 399.33L996.4 365.33L996.4 297.33zM996.4 365.33L1055.29 399.33L1055.29 467.33L996.4 501.33L937.51 467.33L937.51 399.33zM1055.29 671.33L1114.19 705.33L1114.19 773.33L1055.29 807.33L996.4 773.33L996.4 705.33zM1173.08 671.33L1231.97 705.33L1231.97 773.33L1173.08 807.33L1114.19 773.33L1114.19 705.33zM1290.86 671.33L1349.75 705.33L1349.75 773.33L1290.86 807.33L1231.97 773.33L1231.97 705.33zM1349.75 161.33L1408.64 195.33L1408.64 263.33L1349.75 297.33L1290.86 263.33L1290.86 195.33zM1408.64 671.33L1467.53 705.33L1467.53 773.33L1408.64 807.33L1349.75 773.33L1349.75 705.33zM1526.42 263.33L1585.32 297.33L1585.32 365.33L1526.42 399.33L1467.53 365.33L1467.53 297.33zM1467.53 773.33L1526.42 807.33L1526.42 875.33L1467.53 909.33L1408.64 875.33L1408.64 807.33z" stroke="url(&quot;#SvgjsLinearGradient4049&quot;)" stroke-width="2"></path>
        <path d="M106.23 263.33 a6.8 6.8 0 1 0 13.6 0 a6.8 6.8 0 1 0 -13.6 0zM165.12 297.33 a6.8 6.8 0 1 0 13.6 0 a6.8 6.8 0 1 0 -13.6 0zM165.12 365.33 a6.8 6.8 0 1 0 13.6 0 a6.8 6.8 0 1 0 -13.6 0zM106.23 399.33 a6.8 6.8 0 1 0 13.6 0 a6.8 6.8 0 1 0 -13.6 0zM47.34 365.33 a6.8 6.8 0 1 0 13.6 0 a6.8 6.8 0 1 0 -13.6 0zM47.34 297.33 a6.8 6.8 0 1 0 13.6 0 a6.8 6.8 0 1 0 -13.6 0zM106.23 467.33 a6.8 6.8 0 1 0 13.6 0 a6.8 6.8 0 1 0 -13.6 0zM165.12 501.33 a6.8 6.8 0 1 0 13.6 0 a6.8 6.8 0 1 0 -13.6 0zM165.12 569.33 a6.8 6.8 0 1 0 13.6 0 a6.8 6.8 0 1 0 -13.6 0zM106.23 603.33 a6.8 6.8 0 1 0 13.6 0 a6.8 6.8 0 1 0 -13.6 0zM47.34 569.33 a6.8 6.8 0 1 0 13.6 0 a6.8 6.8 0 1 0 -13.6 0zM47.34 501.33 a6.8 6.8 0 1 0 13.6 0 a6.8 6.8 0 1 0 -13.6 0zM106.23 671.33 a6.8 6.8 0 1 0 13.6 0 a6.8 6.8 0 1 0 -13.6 0zM47.34 705.33 a6.8 6.8 0 1 0 13.6 0 a6.8 6.8 0 1 0 -13.6 0zM-11.55 671.33 a6.8 6.8 0 1 0 13.6 0 a6.8 6.8 0 1 0 -13.6 0zM-11.55 603.33 a6.8 6.8 0 1 0 13.6 0 a6.8 6.8 0 1 0 -13.6 0zM47.34 773.33 a6.8 6.8 0 1 0 13.6 0 a6.8 6.8 0 1 0 -13.6 0zM106.23 807.33 a6.8 6.8 0 1 0 13.6 0 a6.8 6.8 0 1 0 -13.6 0zM106.23 875.33 a6.8 6.8 0 1 0 13.6 0 a6.8 6.8 0 1 0 -13.6 0zM47.34 909.33 a6.8 6.8 0 1 0 13.6 0 a6.8 6.8 0 1 0 -13.6 0zM-11.55 875.33 a6.8 6.8 0 1 0 13.6 0 a6.8 6.8 0 1 0 -13.6 0zM-11.55 807.33 a6.8 6.8 0 1 0 13.6 0 a6.8 6.8 0 1 0 -13.6 0zM224.01 59.33 a6.8 6.8 0 1 0 13.6 0 a6.8 6.8 0 1 0 -13.6 0zM282.91 93.33 a6.8 6.8 0 1 0 13.6 0 a6.8 6.8 0 1 0 -13.6 0zM282.91 161.33 a6.8 6.8 0 1 0 13.6 0 a6.8 6.8 0 1 0 -13.6 0zM224.01 195.33 a6.8 6.8 0 1 0 13.6 0 a6.8 6.8 0 1 0 -13.6 0zM165.12 161.33 a6.8 6.8 0 1 0 13.6 0 a6.8 6.8 0 1 0 -13.6 0zM165.12 93.33 a6.8 6.8 0 1 0 13.6 0 a6.8 6.8 0 1 0 -13.6 0zM165.12 773.33 a6.8 6.8 0 1 0 13.6 0 a6.8 6.8 0 1 0 -13.6 0zM224.01 807.33 a6.8 6.8 0 1 0 13.6 0 a6.8 6.8 0 1 0 -13.6 0zM224.01 875.33 a6.8 6.8 0 1 0 13.6 0 a6.8 6.8 0 1 0 -13.6 0zM165.12 909.33 a6.8 6.8 0 1 0 13.6 0 a6.8 6.8 0 1 0 -13.6 0zM282.91 365.33 a6.8 6.8 0 1 0 13.6 0 a6.8 6.8 0 1 0 -13.6 0zM341.8 399.33 a6.8 6.8 0 1 0 13.6 0 a6.8 6.8 0 1 0 -13.6 0zM341.8 467.33 a6.8 6.8 0 1 0 13.6 0 a6.8 6.8 0 1 0 -13.6 0zM282.91 501.33 a6.8 6.8 0 1 0 13.6 0 a6.8 6.8 0 1 0 -13.6 0zM224.01 467.33 a6.8 6.8 0 1 0 13.6 0 a6.8 6.8 0 1 0 -13.6 0zM224.01 399.33 a6.8 6.8 0 1 0 13.6 0 a6.8 6.8 0 1 0 -13.6 0zM282.91 773.33 a6.8 6.8 0 1 0 13.6 0 a6.8 6.8 0 1 0 -13.6 0zM341.8 807.33 a6.8 6.8 0 1 0 13.6 0 a6.8 6.8 0 1 0 -13.6 0zM341.8 875.33 a6.8 6.8 0 1 0 13.6 0 a6.8 6.8 0 1 0 -13.6 0zM282.91 909.33 a6.8 6.8 0 1 0 13.6 0 a6.8 6.8 0 1 0 -13.6 0zM400.69 -42.67 a6.8 6.8 0 1 0 13.6 0 a6.8 6.8 0 1 0 -13.6 0zM459.58 -8.67 a6.8 6.8 0 1 0 13.6 0 a6.8 6.8 0 1 0 -13.6 0zM459.58 59.33 a6.8 6.8 0 1 0 13.6 0 a6.8 6.8 0 1 0 -13.6 0zM400.69 93.33 a6.8 6.8 0 1 0 13.6 0 a6.8 6.8 0 1 0 -13.6 0zM341.8 59.33 a6.8 6.8 0 1 0 13.6 0 a6.8 6.8 0 1 0 -13.6 0zM341.8 -8.67 a6.8 6.8 0 1 0 13.6 0 a6.8 6.8 0 1 0 -13.6 0zM459.58 263.33 a6.8 6.8 0 1 0 13.6 0 a6.8 6.8 0 1 0 -13.6 0zM518.47 297.33 a6.8 6.8 0 1 0 13.6 0 a6.8 6.8 0 1 0 -13.6 0zM518.47 365.33 a6.8 6.8 0 1 0 13.6 0 a6.8 6.8 0 1 0 -13.6 0zM459.58 399.33 a6.8 6.8 0 1 0 13.6 0 a6.8 6.8 0 1 0 -13.6 0zM400.69 365.33 a6.8 6.8 0 1 0 13.6 0 a6.8 6.8 0 1 0 -13.6 0zM400.69 297.33 a6.8 6.8 0 1 0 13.6 0 a6.8 6.8 0 1 0 -13.6 0zM459.58 671.33 a6.8 6.8 0 1 0 13.6 0 a6.8 6.8 0 1 0 -13.6 0zM518.47 705.33 a6.8 6.8 0 1 0 13.6 0 a6.8 6.8 0 1 0 -13.6 0zM518.47 773.33 a6.8 6.8 0 1 0 13.6 0 a6.8 6.8 0 1 0 -13.6 0zM459.58 807.33 a6.8 6.8 0 1 0 13.6 0 a6.8 6.8 0 1 0 -13.6 0zM400.69 773.33 a6.8 6.8 0 1 0 13.6 0 a6.8 6.8 0 1 0 -13.6 0zM400.69 705.33 a6.8 6.8 0 1 0 13.6 0 a6.8 6.8 0 1 0 -13.6 0zM459.58 875.33 a6.8 6.8 0 1 0 13.6 0 a6.8 6.8 0 1 0 -13.6 0zM400.69 909.33 a6.8 6.8 0 1 0 13.6 0 a6.8 6.8 0 1 0 -13.6 0zM518.47 161.33 a6.8 6.8 0 1 0 13.6 0 a6.8 6.8 0 1 0 -13.6 0zM577.36 195.33 a6.8 6.8 0 1 0 13.6 0 a6.8 6.8 0 1 0 -13.6 0zM577.36 263.33 a6.8 6.8 0 1 0 13.6 0 a6.8 6.8 0 1 0 -13.6 0zM459.58 195.33 a6.8 6.8 0 1 0 13.6 0 a6.8 6.8 0 1 0 -13.6 0zM695.15 467.33 a6.8 6.8 0 1 0 13.6 0 a6.8 6.8 0 1 0 -13.6 0zM754.04 501.33 a6.8 6.8 0 1 0 13.6 0 a6.8 6.8 0 1 0 -13.6 0zM754.04 569.33 a6.8 6.8 0 1 0 13.6 0 a6.8 6.8 0 1 0 -13.6 0zM695.15 603.33 a6.8 6.8 0 1 0 13.6 0 a6.8 6.8 0 1 0 -13.6 0zM636.25 569.33 a6.8 6.8 0 1 0 13.6 0 a6.8 6.8 0 1 0 -13.6 0zM636.25 501.33 a6.8 6.8 0 1 0 13.6 0 a6.8 6.8 0 1 0 -13.6 0zM636.25 773.33 a6.8 6.8 0 1 0 13.6 0 a6.8 6.8 0 1 0 -13.6 0zM695.15 807.33 a6.8 6.8 0 1 0 13.6 0 a6.8 6.8 0 1 0 -13.6 0zM695.15 875.33 a6.8 6.8 0 1 0 13.6 0 a6.8 6.8 0 1 0 -13.6 0zM636.25 909.33 a6.8 6.8 0 1 0 13.6 0 a6.8 6.8 0 1 0 -13.6 0zM577.36 875.33 a6.8 6.8 0 1 0 13.6 0 a6.8 6.8 0 1 0 -13.6 0zM577.36 807.33 a6.8 6.8 0 1 0 13.6 0 a6.8 6.8 0 1 0 -13.6 0zM754.04 365.33 a6.8 6.8 0 1 0 13.6 0 a6.8 6.8 0 1 0 -13.6 0zM812.93 399.33 a6.8 6.8 0 1 0 13.6 0 a6.8 6.8 0 1 0 -13.6 0zM812.93 467.33 a6.8 6.8 0 1 0 13.6 0 a6.8 6.8 0 1 0 -13.6 0zM695.15 399.33 a6.8 6.8 0 1 0 13.6 0 a6.8 6.8 0 1 0 -13.6 0zM871.82 501.33 a6.8 6.8 0 1 0 13.6 0 a6.8 6.8 0 1 0 -13.6 0zM871.82 569.33 a6.8 6.8 0 1 0 13.6 0 a6.8 6.8 0 1 0 -13.6 0zM812.93 603.33 a6.8 6.8 0 1 0 13.6 0 a6.8 6.8 0 1 0 -13.6 0zM754.04 773.33 a6.8 6.8 0 1 0 13.6 0 a6.8 6.8 0 1 0 -13.6 0zM812.93 807.33 a6.8 6.8 0 1 0 13.6 0 a6.8 6.8 0 1 0 -13.6 0zM812.93 875.33 a6.8 6.8 0 1 0 13.6 0 a6.8 6.8 0 1 0 -13.6 0zM754.04 909.33 a6.8 6.8 0 1 0 13.6 0 a6.8 6.8 0 1 0 -13.6 0zM871.82 161.33 a6.8 6.8 0 1 0 13.6 0 a6.8 6.8 0 1 0 -13.6 0zM930.71 195.33 a6.8 6.8 0 1 0 13.6 0 a6.8 6.8 0 1 0 -13.6 0zM930.71 263.33 a6.8 6.8 0 1 0 13.6 0 a6.8 6.8 0 1 0 -13.6 0zM871.82 297.33 a6.8 6.8 0 1 0 13.6 0 a6.8 6.8 0 1 0 -13.6 0zM812.93 263.33 a6.8 6.8 0 1 0 13.6 0 a6.8 6.8 0 1 0 -13.6 0zM812.93 195.33 a6.8 6.8 0 1 0 13.6 0 a6.8 6.8 0 1 0 -13.6 0zM871.82 365.33 a6.8 6.8 0 1 0 13.6 0 a6.8 6.8 0 1 0 -13.6 0zM930.71 399.33 a6.8 6.8 0 1 0 13.6 0 a6.8 6.8 0 1 0 -13.6 0zM930.71 467.33 a6.8 6.8 0 1 0 13.6 0 a6.8 6.8 0 1 0 -13.6 0zM989.6 501.33 a6.8 6.8 0 1 0 13.6 0 a6.8 6.8 0 1 0 -13.6 0zM989.6 569.33 a6.8 6.8 0 1 0 13.6 0 a6.8 6.8 0 1 0 -13.6 0zM930.71 603.33 a6.8 6.8 0 1 0 13.6 0 a6.8 6.8 0 1 0 -13.6 0zM930.71 671.33 a6.8 6.8 0 1 0 13.6 0 a6.8 6.8 0 1 0 -13.6 0zM871.82 705.33 a6.8 6.8 0 1 0 13.6 0 a6.8 6.8 0 1 0 -13.6 0zM812.93 671.33 a6.8 6.8 0 1 0 13.6 0 a6.8 6.8 0 1 0 -13.6 0zM989.6 705.33 a6.8 6.8 0 1 0 13.6 0 a6.8 6.8 0 1 0 -13.6 0zM989.6 773.33 a6.8 6.8 0 1 0 13.6 0 a6.8 6.8 0 1 0 -13.6 0zM930.71 807.33 a6.8 6.8 0 1 0 13.6 0 a6.8 6.8 0 1 0 -13.6 0zM871.82 773.33 a6.8 6.8 0 1 0 13.6 0 a6.8 6.8 0 1 0 -13.6 0zM930.71 875.33 a6.8 6.8 0 1 0 13.6 0 a6.8 6.8 0 1 0 -13.6 0zM871.82 909.33 a6.8 6.8 0 1 0 13.6 0 a6.8 6.8 0 1 0 -13.6 0zM1048.49 263.33 a6.8 6.8 0 1 0 13.6 0 a6.8 6.8 0 1 0 -13.6 0zM1107.39 297.33 a6.8 6.8 0 1 0 13.6 0 a6.8 6.8 0 1 0 -13.6 0zM1107.39 365.33 a6.8 6.8 0 1 0 13.6 0 a6.8 6.8 0 1 0 -13.6 0zM1048.49 399.33 a6.8 6.8 0 1 0 13.6 0 a6.8 6.8 0 1 0 -13.6 0zM989.6 365.33 a6.8 6.8 0 1 0 13.6 0 a6.8 6.8 0 1 0 -13.6 0zM989.6 297.33 a6.8 6.8 0 1 0 13.6 0 a6.8 6.8 0 1 0 -13.6 0zM1048.49 467.33 a6.8 6.8 0 1 0 13.6 0 a6.8 6.8 0 1 0 -13.6 0zM1048.49 671.33 a6.8 6.8 0 1 0 13.6 0 a6.8 6.8 0 1 0 -13.6 0zM1107.39 705.33 a6.8 6.8 0 1 0 13.6 0 a6.8 6.8 0 1 0 -13.6 0zM1107.39 773.33 a6.8 6.8 0 1 0 13.6 0 a6.8 6.8 0 1 0 -13.6 0zM1048.49 807.33 a6.8 6.8 0 1 0 13.6 0 a6.8 6.8 0 1 0 -13.6 0zM1166.28 671.33 a6.8 6.8 0 1 0 13.6 0 a6.8 6.8 0 1 0 -13.6 0zM1225.17 705.33 a6.8 6.8 0 1 0 13.6 0 a6.8 6.8 0 1 0 -13.6 0zM1225.17 773.33 a6.8 6.8 0 1 0 13.6 0 a6.8 6.8 0 1 0 -13.6 0zM1166.28 807.33 a6.8 6.8 0 1 0 13.6 0 a6.8 6.8 0 1 0 -13.6 0zM1284.06 671.33 a6.8 6.8 0 1 0 13.6 0 a6.8 6.8 0 1 0 -13.6 0zM1342.95 705.33 a6.8 6.8 0 1 0 13.6 0 a6.8 6.8 0 1 0 -13.6 0zM1342.95 773.33 a6.8 6.8 0 1 0 13.6 0 a6.8 6.8 0 1 0 -13.6 0zM1284.06 807.33 a6.8 6.8 0 1 0 13.6 0 a6.8 6.8 0 1 0 -13.6 0zM1342.95 161.33 a6.8 6.8 0 1 0 13.6 0 a6.8 6.8 0 1 0 -13.6 0zM1401.84 195.33 a6.8 6.8 0 1 0 13.6 0 a6.8 6.8 0 1 0 -13.6 0zM1401.84 263.33 a6.8 6.8 0 1 0 13.6 0 a6.8 6.8 0 1 0 -13.6 0zM1342.95 297.33 a6.8 6.8 0 1 0 13.6 0 a6.8 6.8 0 1 0 -13.6 0zM1284.06 263.33 a6.8 6.8 0 1 0 13.6 0 a6.8 6.8 0 1 0 -13.6 0zM1284.06 195.33 a6.8 6.8 0 1 0 13.6 0 a6.8 6.8 0 1 0 -13.6 0zM1401.84 671.33 a6.8 6.8 0 1 0 13.6 0 a6.8 6.8 0 1 0 -13.6 0zM1460.73 705.33 a6.8 6.8 0 1 0 13.6 0 a6.8 6.8 0 1 0 -13.6 0zM1460.73 773.33 a6.8 6.8 0 1 0 13.6 0 a6.8 6.8 0 1 0 -13.6 0zM1401.84 807.33 a6.8 6.8 0 1 0 13.6 0 a6.8 6.8 0 1 0 -13.6 0zM1519.62 263.33 a6.8 6.8 0 1 0 13.6 0 a6.8 6.8 0 1 0 -13.6 0zM1578.52 297.33 a6.8 6.8 0 1 0 13.6 0 a6.8 6.8 0 1 0 -13.6 0zM1578.52 365.33 a6.8 6.8 0 1 0 13.6 0 a6.8 6.8 0 1 0 -13.6 0zM1519.62 399.33 a6.8 6.8 0 1 0 13.6 0 a6.8 6.8 0 1 0 -13.6 0zM1460.73 365.33 a6.8 6.8 0 1 0 13.6 0 a6.8 6.8 0 1 0 -13.6 0zM1460.73 297.33 a6.8 6.8 0 1 0 13.6 0 a6.8 6.8 0 1 0 -13.6 0zM1519.62 807.33 a6.8 6.8 0 1 0 13.6 0 a6.8 6.8 0 1 0 -13.6 0zM1519.62 875.33 a6.8 6.8 0 1 0 13.6 0 a6.8 6.8 0 1 0 -13.6 0zM1460.73 909.33 a6.8 6.8 0 1 0 13.6 0 a6.8 6.8 0 1 0 -13.6 0zM1401.84 875.33 a6.8 6.8 0 1 0 13.6 0 a6.8 6.8 0 1 0 -13.6 0z" fill="url(&quot;#SvgjsLinearGradient4049&quot;)"></path>
        <path d="M72.57 485.74L116.74 511.24L116.74 562.24L72.57 587.74L28.4 562.24L28.4 511.24zM28.4 562.24L72.57 587.74L72.57 638.74L28.4 664.24L-15.77 638.74L-15.77 587.74zM28.4 715.24L72.57 740.74L72.57 791.74L28.4 817.24L-15.77 791.74L-15.77 740.74zM160.91 26.74L205.07 52.24L205.07 103.24L160.91 128.74L116.74 103.24L116.74 52.24zM337.58 179.74L381.75 205.24L381.75 256.24L337.58 281.74L293.41 256.24L293.41 205.24zM293.41 256.24L337.58 281.74L337.58 332.74L293.41 358.24L249.24 332.74L249.24 281.74zM293.41 562.24L337.58 587.74L337.58 638.74L293.41 664.24L249.24 638.74L249.24 587.74zM337.58 638.74L381.75 664.24L381.75 715.24L337.58 740.74L293.41 715.24L293.41 664.24zM425.92 179.74L470.09 205.24L470.09 256.24L425.92 281.74L381.75 256.24L381.75 205.24zM602.59 485.74L646.76 511.24L646.76 562.24L602.59 587.74L558.42 562.24L558.42 511.24zM646.76 -49.76L690.93 -24.26L690.93 26.74L646.76 52.24L602.59 26.74L602.59 -24.26zM690.93 485.74L735.1 511.24L735.1 562.24L690.93 587.74L646.76 562.24L646.76 511.24zM735.1 562.24L779.27 587.74L779.27 638.74L735.1 664.24L690.93 638.74L690.93 587.74zM779.27 638.74L823.43 664.24L823.43 715.24L779.27 740.74L735.1 715.24L735.1 664.24zM823.43 562.24L867.6 587.74L867.6 638.74L823.43 664.24L779.27 638.74L779.27 587.74zM955.94 179.74L1000.11 205.24L1000.11 256.24L955.94 281.74L911.77 256.24L911.77 205.24zM1044.28 638.74L1088.45 664.24L1088.45 715.24L1044.28 740.74L1000.11 715.24L1000.11 664.24zM1176.78 -49.76L1220.95 -24.26L1220.95 26.74L1176.78 52.24L1132.61 26.74L1132.61 -24.26zM1220.95 332.74L1265.12 358.24L1265.12 409.24L1220.95 434.74L1176.78 409.24L1176.78 358.24zM1265.12 -49.76L1309.29 -24.26L1309.29 26.74L1265.12 52.24L1220.95 26.74L1220.95 -24.26zM1397.63 26.74L1441.79 52.24L1441.79 103.24L1397.63 128.74L1353.46 103.24L1353.46 52.24zM1397.63 179.74L1441.79 205.24L1441.79 256.24L1397.63 281.74L1353.46 256.24L1353.46 205.24z" stroke="url(&quot;#SvgjsLinearGradient4050&quot;)" stroke-width="2"></path>
    </g>
    <defs>
        <mask id="SvgjsMask4047">
            <rect width="1440" height="800" fill="#ffffff"></rect>
        </mask>
        <linearGradient x1="88.89%" y1="120%" x2="11.11%" y2="-20%" gradientUnits="userSpaceOnUse" id="SvgjsLinearGradient4048">
            <stop stop-color="rgba(219, 165, 48, 0.8784313725490196)" offset="0"></stop>
            <stop stop-color="rgba(255, 255, 255, 1)" offset="1"></stop>
        </linearGradient>
        <linearGradient x1="1440" y1="400" x2="0" y2="400" gradientUnits="userSpaceOnUse" id="SvgjsLinearGradient4049">
            <stop stop-color="rgba(251, 218, 146, 1)" offset="0"></stop>
            <stop stop-color="rgba(219, 165, 48, 1)" offset="1"></stop>
        </linearGradient>
        <linearGradient x1="0" y1="400" x2="1440" y2="400" gradientUnits="userSpaceOnUse" id="SvgjsLinearGradient4050">
            <stop stop-color="rgba(99, 68, 0, 1)" offset="0"></stop>
            <stop stop-color="rgba(255, 255, 255, 1)" offset="1"></stop>
        </linearGradient>
    </defs>
</svg>