<svg xmlns="http://www.w3.org/2000/svg" version="1.1" xmlns:xlink="http://www.w3.org/1999/xlink" xmlns:svgjs="http://svgjs.dev/svgjs" width="1440" height="560" preserveAspectRatio="none" viewBox="0 0 1440 560">
    <g mask="url(&quot;#SvgjsMask2254&quot;)" fill="none">
        <rect width="1440" height="560" x="0" y="0" fill="url(&quot;#SvgjsLinearGradient2255&quot;)"></rect>
        <path d="M-55.36 391.15L-55.36 391.15" stroke="rgba(255, 200, 68, 1)" stroke-width="1.5"></path>
        <path d="M-55.36 391.15L79.4 397.78" stroke="rgba(255, 200, 68, 1)" stroke-width="1.5"></path>
        <path d="M-55.36 391.15L-104.26 545.32" stroke="rgba(255, 200, 68, 1)" stroke-width="1.5"></path>
        <path d="M-55.36 391.15L67.83 543.21" stroke="rgba(255, 200, 68, 1)" stroke-width="1.5"></path>
        <path d="M-104.26 545.32L-104.26 545.32" stroke="rgba(255, 200, 68, 1)" stroke-width="1.5"></path>
        <path d="M-104.26 545.32L-100.08 643.8" stroke="rgba(255, 200, 68, 1)" stroke-width="1.5"></path>
        <path d="M-104.26 545.32L67.83 543.21" stroke="rgba(255, 200, 68, 1)" stroke-width="1.5"></path>
        <path d="M-104.26 545.32L79.4 397.78" stroke="rgba(255, 200, 68, 1)" stroke-width="1.5"></path>
        <path d="M-104.26 545.32L86.94 700.71" stroke="rgba(255, 200, 68, 1)" stroke-width="1.5"></path>
        <path d="M-100.08 643.8L-100.08 643.8" stroke="rgba(255, 200, 68, 1)" stroke-width="1.5"></path>
        <path d="M-100.08 643.8L86.94 700.71" stroke="rgba(255, 200, 68, 1)" stroke-width="1.5"></path>
        <path d="M-100.08 643.8L67.83 543.21" stroke="rgba(255, 200, 68, 1)" stroke-width="1.5"></path>
        <path d="M79.4 397.78L79.4 397.78" stroke="rgba(255, 200, 68, 1)" stroke-width="1.5"></path>
        <path d="M79.4 397.78L67.83 543.21" stroke="rgba(255, 200, 68, 1)" stroke-width="1.5"></path>
        <path d="M79.4 397.78L237.76 364.37" stroke="rgba(255, 200, 68, 1)" stroke-width="1.5"></path>
        <path d="M79.4 397.78L245.21 529.54" stroke="rgba(255, 200, 68, 1)" stroke-width="1.5"></path>
        <path d="M79.4 397.78L86.94 700.71" stroke="rgba(255, 200, 68, 1)" stroke-width="1.5"></path>
        <path d="M67.83 543.21L67.83 543.21" stroke="rgba(255, 200, 68, 1)" stroke-width="1.5"></path>
        <path d="M67.83 543.21L86.94 700.71" stroke="rgba(255, 200, 68, 1)" stroke-width="1.5"></path>
        <path d="M86.94 700.71L86.94 700.71" stroke="rgba(255, 200, 68, 1)" stroke-width="1.5"></path>
        <path d="M86.94 700.71L189.91 686.81" stroke="rgba(255, 200, 68, 1)" stroke-width="1.5"></path>
        <path d="M237.76 364.37L237.76 364.37" stroke="rgba(255, 200, 68, 1)" stroke-width="1.5"></path>
        <path d="M237.76 364.37L381.95 354.98" stroke="rgba(255, 200, 68, 1)" stroke-width="1.5"></path>
        <path d="M245.21 529.54L245.21 529.54" stroke="rgba(255, 200, 68, 1)" stroke-width="1.5"></path>
        <path d="M245.21 529.54L396.91 519.67" stroke="rgba(255, 200, 68, 1)" stroke-width="1.5"></path>
        <path d="M189.91 686.81L189.91 686.81" stroke="rgba(255, 200, 68, 1)" stroke-width="1.5"></path>
        <path d="M189.91 686.81L245.21 529.54" stroke="rgba(255, 200, 68, 1)" stroke-width="1.5"></path>
        <path d="M189.91 686.81L360.26 702.05" stroke="rgba(255, 200, 68, 1)" stroke-width="1.5"></path>
        <path d="M381.95 354.98L381.95 354.98" stroke="rgba(255, 200, 68, 1)" stroke-width="1.5"></path>
        <path d="M381.95 354.98L396.91 519.67" stroke="rgba(255, 200, 68, 1)" stroke-width="1.5"></path>
        <path d="M381.95 354.98L550.19 373.55" stroke="rgba(255, 200, 68, 1)" stroke-width="1.5"></path>
        <path d="M381.95 354.98L500.49 508.97" stroke="rgba(255, 200, 68, 1)" stroke-width="1.5"></path>
        <path d="M396.91 519.67L396.91 519.67" stroke="rgba(255, 200, 68, 1)" stroke-width="1.5"></path>
        <path d="M396.91 519.67L500.49 508.97" stroke="rgba(255, 200, 68, 1)" stroke-width="1.5"></path>
        <path d="M396.91 519.67L360.26 702.05" stroke="rgba(255, 200, 68, 1)" stroke-width="1.5"></path>
        <path d="M360.26 702.05L360.26 702.05" stroke="rgba(255, 200, 68, 1)" stroke-width="1.5"></path>
        <path d="M360.26 702.05L496.63 691.15" stroke="rgba(255, 200, 68, 1)" stroke-width="1.5"></path>
        <path d="M550.19 373.55L550.19 373.55" stroke="rgba(255, 200, 68, 1)" stroke-width="1.5"></path>
        <path d="M550.19 373.55L500.49 508.97" stroke="rgba(255, 200, 68, 1)" stroke-width="1.5"></path>
        <path d="M550.19 373.55L709.07 368.63" stroke="rgba(255, 200, 68, 1)" stroke-width="1.5"></path>
        <path d="M500.49 508.97L500.49 508.97" stroke="rgba(255, 200, 68, 1)" stroke-width="1.5"></path>
        <path d="M496.63 691.15L496.63 691.15" stroke="rgba(255, 200, 68, 1)" stroke-width="1.5"></path>
        <path d="M496.63 691.15L670.65 685.61" stroke="rgba(255, 200, 68, 1)" stroke-width="1.5"></path>
        <path d="M706.5 227.51L706.5 227.51" stroke="rgba(255, 200, 68, 1)" stroke-width="1.5"></path>
        <path d="M706.5 227.51L816.15 203.2" stroke="rgba(255, 200, 68, 1)" stroke-width="1.5"></path>
        <path d="M706.5 227.51L709.07 368.63" stroke="rgba(255, 200, 68, 1)" stroke-width="1.5"></path>
        <path d="M706.5 227.51L550.19 373.55" stroke="rgba(255, 200, 68, 1)" stroke-width="1.5"></path>
        <path d="M706.5 227.51L835 408.36" stroke="rgba(255, 200, 68, 1)" stroke-width="1.5"></path>
        <path d="M706.5 227.51L939.8 213.67" stroke="rgba(255, 200, 68, 1)" stroke-width="1.5"></path>
        <path d="M709.07 368.63L709.07 368.63" stroke="rgba(255, 200, 68, 1)" stroke-width="1.5"></path>
        <path d="M709.07 368.63L835 408.36" stroke="rgba(255, 200, 68, 1)" stroke-width="1.5"></path>
        <path d="M709.07 368.63L821.02 520.67" stroke="rgba(255, 200, 68, 1)" stroke-width="1.5"></path>
        <path d="M709.07 368.63L660.05 553.9" stroke="rgba(255, 200, 68, 1)" stroke-width="1.5"></path>
        <path d="M709.07 368.63L816.15 203.2" stroke="rgba(255, 200, 68, 1)" stroke-width="1.5"></path>
        <path d="M660.05 553.9L660.05 553.9" stroke="rgba(255, 200, 68, 1)" stroke-width="1.5"></path>
        <path d="M660.05 553.9L670.65 685.61" stroke="rgba(255, 200, 68, 1)" stroke-width="1.5"></path>
        <path d="M660.05 553.9L821.02 520.67" stroke="rgba(255, 200, 68, 1)" stroke-width="1.5"></path>
        <path d="M660.05 553.9L500.49 508.97" stroke="rgba(255, 200, 68, 1)" stroke-width="1.5"></path>
        <path d="M670.65 685.61L670.65 685.61" stroke="rgba(255, 200, 68, 1)" stroke-width="1.5"></path>
        <path d="M670.65 685.61L821.02 520.67" stroke="rgba(255, 200, 68, 1)" stroke-width="1.5"></path>
        <path d="M670.65 685.61L500.49 508.97" stroke="rgba(255, 200, 68, 1)" stroke-width="1.5"></path>
        <path d="M670.65 685.61L360.26 702.05" stroke="rgba(255, 200, 68, 1)" stroke-width="1.5"></path>
        <path d="M816.15 203.2L816.15 203.2" stroke="rgba(255, 200, 68, 1)" stroke-width="1.5"></path>
        <path d="M816.15 203.2L939.8 213.67" stroke="rgba(255, 200, 68, 1)" stroke-width="1.5"></path>
        <path d="M835 408.36L835 408.36" stroke="rgba(255, 200, 68, 1)" stroke-width="1.5"></path>
        <path d="M835 408.36L821.02 520.67" stroke="rgba(255, 200, 68, 1)" stroke-width="1.5"></path>
        <path d="M835 408.36L987.1 366.97" stroke="rgba(255, 200, 68, 1)" stroke-width="1.5"></path>
        <path d="M835 408.36L995.18 498.85" stroke="rgba(255, 200, 68, 1)" stroke-width="1.5"></path>
        <path d="M835 408.36L816.15 203.2" stroke="rgba(255, 200, 68, 1)" stroke-width="1.5"></path>
        <path d="M821.02 520.67L821.02 520.67" stroke="rgba(255, 200, 68, 1)" stroke-width="1.5"></path>
        <path d="M821.02 520.67L995.18 498.85" stroke="rgba(255, 200, 68, 1)" stroke-width="1.5"></path>
        <path d="M821.02 520.67L983.47 642.15" stroke="rgba(255, 200, 68, 1)" stroke-width="1.5"></path>
        <path d="M958 -95.24L958 -95.24" stroke="rgba(255, 200, 68, 1)" stroke-width="1.5"></path>
        <path d="M958 -95.24L986.78 58.45" stroke="rgba(255, 200, 68, 1)" stroke-width="1.5"></path>
        <path d="M958 -95.24L1108.6 109.25" stroke="rgba(255, 200, 68, 1)" stroke-width="1.5"></path>
        <path d="M958 -95.24L939.8 213.67" stroke="rgba(255, 200, 68, 1)" stroke-width="1.5"></path>
        <path d="M958 -95.24L1268.92 -107.77" stroke="rgba(255, 200, 68, 1)" stroke-width="1.5"></path>
        <path d="M958 -95.24L816.15 203.2" stroke="rgba(255, 200, 68, 1)" stroke-width="1.5"></path>
        <path d="M986.78 58.45L986.78 58.45" stroke="rgba(255, 200, 68, 1)" stroke-width="1.5"></path>
        <path d="M986.78 58.45L1108.6 109.25" stroke="rgba(255, 200, 68, 1)" stroke-width="1.5"></path>
        <path d="M986.78 58.45L939.8 213.67" stroke="rgba(255, 200, 68, 1)" stroke-width="1.5"></path>
        <path d="M986.78 58.45L816.15 203.2" stroke="rgba(255, 200, 68, 1)" stroke-width="1.5"></path>
        <path d="M986.78 58.45L1145.84 228.98" stroke="rgba(255, 200, 68, 1)" stroke-width="1.5"></path>
        <path d="M939.8 213.67L939.8 213.67" stroke="rgba(255, 200, 68, 1)" stroke-width="1.5"></path>
        <path d="M939.8 213.67L987.1 366.97" stroke="rgba(255, 200, 68, 1)" stroke-width="1.5"></path>
        <path d="M987.1 366.97L987.1 366.97" stroke="rgba(255, 200, 68, 1)" stroke-width="1.5"></path>
        <path d="M987.1 366.97L995.18 498.85" stroke="rgba(255, 200, 68, 1)" stroke-width="1.5"></path>
        <path d="M987.1 366.97L1124.58 384.76" stroke="rgba(255, 200, 68, 1)" stroke-width="1.5"></path>
        <path d="M995.18 498.85L995.18 498.85" stroke="rgba(255, 200, 68, 1)" stroke-width="1.5"></path>
        <path d="M995.18 498.85L1094.5 490.96" stroke="rgba(255, 200, 68, 1)" stroke-width="1.5"></path>
        <path d="M995.18 498.85L983.47 642.15" stroke="rgba(255, 200, 68, 1)" stroke-width="1.5"></path>
        <path d="M983.47 642.15L983.47 642.15" stroke="rgba(255, 200, 68, 1)" stroke-width="1.5"></path>
        <path d="M983.47 642.15L1145.52 639.01" stroke="rgba(255, 200, 68, 1)" stroke-width="1.5"></path>
        <path d="M1108.6 109.25L1108.6 109.25" stroke="rgba(255, 200, 68, 1)" stroke-width="1.5"></path>
        <path d="M1108.6 109.25L1145.84 228.98" stroke="rgba(255, 200, 68, 1)" stroke-width="1.5"></path>
        <path d="M1108.6 109.25L1254.23 88.88" stroke="rgba(255, 200, 68, 1)" stroke-width="1.5"></path>
        <path d="M1108.6 109.25L939.8 213.67" stroke="rgba(255, 200, 68, 1)" stroke-width="1.5"></path>
        <path d="M1108.6 109.25L1275.32 220.48" stroke="rgba(255, 200, 68, 1)" stroke-width="1.5"></path>
        <path d="M1145.84 228.98L1145.84 228.98" stroke="rgba(255, 200, 68, 1)" stroke-width="1.5"></path>
        <path d="M1145.84 228.98L1275.32 220.48" stroke="rgba(255, 200, 68, 1)" stroke-width="1.5"></path>
        <path d="M1124.58 384.76L1124.58 384.76" stroke="rgba(255, 200, 68, 1)" stroke-width="1.5"></path>
        <path d="M1124.58 384.76L1094.5 490.96" stroke="rgba(255, 200, 68, 1)" stroke-width="1.5"></path>
        <path d="M1124.58 384.76L1243.11 405.94" stroke="rgba(255, 200, 68, 1)" stroke-width="1.5"></path>
        <path d="M1094.5 490.96L1094.5 490.96" stroke="rgba(255, 200, 68, 1)" stroke-width="1.5"></path>
        <path d="M1094.5 490.96L1145.52 639.01" stroke="rgba(255, 200, 68, 1)" stroke-width="1.5"></path>
        <path d="M1094.5 490.96L987.1 366.97" stroke="rgba(255, 200, 68, 1)" stroke-width="1.5"></path>
        <path d="M1094.5 490.96L1260.15 492.66" stroke="rgba(255, 200, 68, 1)" stroke-width="1.5"></path>
        <path d="M1145.52 639.01L1145.52 639.01" stroke="rgba(255, 200, 68, 1)" stroke-width="1.5"></path>
        <path d="M1145.52 639.01L1243.28 654.38" stroke="rgba(255, 200, 68, 1)" stroke-width="1.5"></path>
        <path d="M1145.52 639.01L1260.15 492.66" stroke="rgba(255, 200, 68, 1)" stroke-width="1.5"></path>
        <path d="M1145.52 639.01L995.18 498.85" stroke="rgba(255, 200, 68, 1)" stroke-width="1.5"></path>
        <path d="M1145.52 639.01L1243.11 405.94" stroke="rgba(255, 200, 68, 1)" stroke-width="1.5"></path>
        <path d="M1268.92 -107.77L1268.92 -107.77" stroke="rgba(255, 200, 68, 1)" stroke-width="1.5"></path>
        <path d="M1268.92 -107.77L1452.63 -64.48" stroke="rgba(255, 200, 68, 1)" stroke-width="1.5"></path>
        <path d="M1268.92 -107.77L1254.23 88.88" stroke="rgba(255, 200, 68, 1)" stroke-width="1.5"></path>
        <path d="M1268.92 -107.77L1443.54 57.59" stroke="rgba(255, 200, 68, 1)" stroke-width="1.5"></path>
        <path d="M1268.92 -107.77L1108.6 109.25" stroke="rgba(255, 200, 68, 1)" stroke-width="1.5"></path>
        <path d="M1268.92 -107.77L1549.63 -87.9" stroke="rgba(255, 200, 68, 1)" stroke-width="1.5"></path>
        <path d="M1254.23 88.88L1254.23 88.88" stroke="rgba(255, 200, 68, 1)" stroke-width="1.5"></path>
        <path d="M1254.23 88.88L1275.32 220.48" stroke="rgba(255, 200, 68, 1)" stroke-width="1.5"></path>
        <path d="M1254.23 88.88L1145.84 228.98" stroke="rgba(255, 200, 68, 1)" stroke-width="1.5"></path>
        <path d="M1254.23 88.88L1443.54 57.59" stroke="rgba(255, 200, 68, 1)" stroke-width="1.5"></path>
        <path d="M1275.32 220.48L1275.32 220.48" stroke="rgba(255, 200, 68, 1)" stroke-width="1.5"></path>
        <path d="M1275.32 220.48L1243.11 405.94" stroke="rgba(255, 200, 68, 1)" stroke-width="1.5"></path>
        <path d="M1275.32 220.48L1451.56 350.63" stroke="rgba(255, 200, 68, 1)" stroke-width="1.5"></path>
        <path d="M1275.32 220.48L1124.58 384.76" stroke="rgba(255, 200, 68, 1)" stroke-width="1.5"></path>
        <path d="M1243.11 405.94L1243.11 405.94" stroke="rgba(255, 200, 68, 1)" stroke-width="1.5"></path>
        <path d="M1243.11 405.94L1260.15 492.66" stroke="rgba(255, 200, 68, 1)" stroke-width="1.5"></path>
        <path d="M1243.11 405.94L1094.5 490.96" stroke="rgba(255, 200, 68, 1)" stroke-width="1.5"></path>
        <path d="M1243.11 405.94L1401.54 511.74" stroke="rgba(255, 200, 68, 1)" stroke-width="1.5"></path>
        <path d="M1260.15 492.66L1260.15 492.66" stroke="rgba(255, 200, 68, 1)" stroke-width="1.5"></path>
        <path d="M1260.15 492.66L1401.54 511.74" stroke="rgba(255, 200, 68, 1)" stroke-width="1.5"></path>
        <path d="M1260.15 492.66L1243.28 654.38" stroke="rgba(255, 200, 68, 1)" stroke-width="1.5"></path>
        <path d="M1243.28 654.38L1243.28 654.38" stroke="rgba(255, 200, 68, 1)" stroke-width="1.5"></path>
        <path d="M1243.28 654.38L1431.2 690.14" stroke="rgba(255, 200, 68, 1)" stroke-width="1.5"></path>
        <path d="M1243.28 654.38L1401.54 511.74" stroke="rgba(255, 200, 68, 1)" stroke-width="1.5"></path>
        <path d="M1243.28 654.38L1094.5 490.96" stroke="rgba(255, 200, 68, 1)" stroke-width="1.5"></path>
        <path d="M1452.63 -64.48L1452.63 -64.48" stroke="rgba(255, 200, 68, 1)" stroke-width="1.5"></path>
        <path d="M1452.63 -64.48L1549.63 -87.9" stroke="rgba(255, 200, 68, 1)" stroke-width="1.5"></path>
        <path d="M1452.63 -64.48L1443.54 57.59" stroke="rgba(255, 200, 68, 1)" stroke-width="1.5"></path>
        <path d="M1452.63 -64.48L1580.53 85.81" stroke="rgba(255, 200, 68, 1)" stroke-width="1.5"></path>
        <path d="M1443.54 57.59L1443.54 57.59" stroke="rgba(255, 200, 68, 1)" stroke-width="1.5"></path>
        <path d="M1443.54 57.59L1580.53 85.81" stroke="rgba(255, 200, 68, 1)" stroke-width="1.5"></path>
        <path d="M1443.54 57.59L1549.63 -87.9" stroke="rgba(255, 200, 68, 1)" stroke-width="1.5"></path>
        <path d="M1443.54 57.59L1581.67 222.57" stroke="rgba(255, 200, 68, 1)" stroke-width="1.5"></path>
        <path d="M1451.56 350.63L1451.56 350.63" stroke="rgba(255, 200, 68, 1)" stroke-width="1.5"></path>
        <path d="M1451.56 350.63L1606.2 407.87" stroke="rgba(255, 200, 68, 1)" stroke-width="1.5"></path>
        <path d="M1451.56 350.63L1401.54 511.74" stroke="rgba(255, 200, 68, 1)" stroke-width="1.5"></path>
        <path d="M1451.56 350.63L1581.67 222.57" stroke="rgba(255, 200, 68, 1)" stroke-width="1.5"></path>
        <path d="M1451.56 350.63L1243.11 405.94" stroke="rgba(255, 200, 68, 1)" stroke-width="1.5"></path>
        <path d="M1401.54 511.74L1401.54 511.74" stroke="rgba(255, 200, 68, 1)" stroke-width="1.5"></path>
        <path d="M1401.54 511.74L1566.49 555.44" stroke="rgba(255, 200, 68, 1)" stroke-width="1.5"></path>
        <path d="M1401.54 511.74L1431.2 690.14" stroke="rgba(255, 200, 68, 1)" stroke-width="1.5"></path>
        <path d="M1431.2 690.14L1431.2 690.14" stroke="rgba(255, 200, 68, 1)" stroke-width="1.5"></path>
        <path d="M1431.2 690.14L1570.22 650.9" stroke="rgba(255, 200, 68, 1)" stroke-width="1.5"></path>
        <path d="M1549.63 -87.9L1549.63 -87.9" stroke="rgba(255, 200, 68, 1)" stroke-width="1.5"></path>
        <path d="M1549.63 -87.9L1580.53 85.81" stroke="rgba(255, 200, 68, 1)" stroke-width="1.5"></path>
        <path d="M1549.63 -87.9L1581.67 222.57" stroke="rgba(255, 200, 68, 1)" stroke-width="1.5"></path>
        <path d="M1580.53 85.81L1580.53 85.81" stroke="rgba(255, 200, 68, 1)" stroke-width="1.5"></path>
        <path d="M1580.53 85.81L1581.67 222.57" stroke="rgba(255, 200, 68, 1)" stroke-width="1.5"></path>
        <path d="M1580.53 85.81L1451.56 350.63" stroke="rgba(255, 200, 68, 1)" stroke-width="1.5"></path>
        <path d="M1581.67 222.57L1581.67 222.57" stroke="rgba(255, 200, 68, 1)" stroke-width="1.5"></path>
        <path d="M1581.67 222.57L1606.2 407.87" stroke="rgba(255, 200, 68, 1)" stroke-width="1.5"></path>
        <path d="M1581.67 222.57L1275.32 220.48" stroke="rgba(255, 200, 68, 1)" stroke-width="1.5"></path>
        <path d="M1606.2 407.87L1606.2 407.87" stroke="rgba(255, 200, 68, 1)" stroke-width="1.5"></path>
        <path d="M1606.2 407.87L1566.49 555.44" stroke="rgba(255, 200, 68, 1)" stroke-width="1.5"></path>
        <path d="M1606.2 407.87L1401.54 511.74" stroke="rgba(255, 200, 68, 1)" stroke-width="1.5"></path>
        <path d="M1566.49 555.44L1566.49 555.44" stroke="rgba(255, 200, 68, 1)" stroke-width="1.5"></path>
        <path d="M1566.49 555.44L1570.22 650.9" stroke="rgba(255, 200, 68, 1)" stroke-width="1.5"></path>
        <path d="M1570.22 650.9L1570.22 650.9" stroke="rgba(255, 200, 68, 1)" stroke-width="1.5"></path>
        <path d="M1570.22 650.9L1401.54 511.74" stroke="rgba(255, 200, 68, 1)" stroke-width="1.5"></path>
        <path d="M1570.22 650.9L1606.2 407.87" stroke="rgba(255, 200, 68, 1)" stroke-width="1.5"></path>
        <path d="M1570.22 650.9L1451.56 350.63" stroke="rgba(255, 200, 68, 1)" stroke-width="1.5"></path>
        <circle r="5" cx="-55.36" cy="391.15" fill="rgba(255, 200, 68, 1)"></circle>
        <circle r="5" cx="-104.26" cy="545.32" fill="rgba(255, 200, 68, 1)"></circle>
        <circle r="5" cx="-100.08" cy="643.8" fill="rgba(255, 200, 68, 1)"></circle>
        <circle r="5" cx="79.4" cy="397.78" fill="rgba(255, 200, 68, 1)"></circle>
        <circle r="5" cx="67.83" cy="543.21" fill="rgba(255, 200, 68, 1)"></circle>
        <circle r="5" cx="86.94" cy="700.71" fill="rgba(255, 200, 68, 1)"></circle>
        <circle r="5" cx="237.76" cy="364.37" fill="rgba(255, 200, 68, 1)"></circle>
        <circle r="5" cx="245.21" cy="529.54" fill="rgba(255, 200, 68, 1)"></circle>
        <circle r="5" cx="189.91" cy="686.81" fill="rgba(255, 200, 68, 1)"></circle>
        <circle r="5" cx="381.95" cy="354.98" fill="rgba(255, 200, 68, 1)"></circle>
        <circle r="5" cx="396.91" cy="519.67" fill="rgba(255, 200, 68, 1)"></circle>
        <circle r="5" cx="360.26" cy="702.05" fill="rgba(255, 200, 68, 1)"></circle>
        <circle r="5" cx="550.19" cy="373.55" fill="rgba(255, 200, 68, 1)"></circle>
        <circle r="5" cx="500.49" cy="508.97" fill="rgba(255, 200, 68, 1)"></circle>
        <circle r="5" cx="496.63" cy="691.15" fill="rgba(255, 200, 68, 1)"></circle>
        <circle r="5" cx="706.5" cy="227.51" fill="rgba(255, 200, 68, 1)"></circle>
        <circle r="5" cx="709.07" cy="368.63" fill="rgba(255, 200, 68, 1)"></circle>
        <circle r="5" cx="660.05" cy="553.9" fill="rgba(255, 200, 68, 1)"></circle>
        <circle r="5" cx="670.65" cy="685.61" fill="rgba(255, 200, 68, 1)"></circle>
        <circle r="5" cx="816.15" cy="203.2" fill="rgba(255, 200, 68, 1)"></circle>
        <circle r="5" cx="835" cy="408.36" fill="rgba(255, 200, 68, 1)"></circle>
        <circle r="5" cx="821.02" cy="520.67" fill="rgba(255, 200, 68, 1)"></circle>
        <circle r="5" cx="958" cy="-95.24" fill="rgba(255, 200, 68, 1)"></circle>
        <circle r="5" cx="986.78" cy="58.45" fill="rgba(255, 200, 68, 1)"></circle>
        <circle r="5" cx="939.8" cy="213.67" fill="rgba(255, 200, 68, 1)"></circle>
        <circle r="5" cx="987.1" cy="366.97" fill="rgba(255, 200, 68, 1)"></circle>
        <circle r="5" cx="995.18" cy="498.85" fill="rgba(255, 200, 68, 1)"></circle>
        <circle r="5" cx="983.47" cy="642.15" fill="rgba(255, 200, 68, 1)"></circle>
        <circle r="5" cx="1108.6" cy="109.25" fill="rgba(255, 200, 68, 1)"></circle>
        <circle r="5" cx="1145.84" cy="228.98" fill="rgba(255, 200, 68, 1)"></circle>
        <circle r="5" cx="1124.58" cy="384.76" fill="rgba(255, 200, 68, 1)"></circle>
        <circle r="5" cx="1094.5" cy="490.96" fill="rgba(255, 200, 68, 1)"></circle>
        <circle r="5" cx="1145.52" cy="639.01" fill="rgba(255, 200, 68, 1)"></circle>
        <circle r="5" cx="1268.92" cy="-107.77" fill="rgba(255, 200, 68, 1)"></circle>
        <circle r="5" cx="1254.23" cy="88.88" fill="rgba(255, 200, 68, 1)"></circle>
        <circle r="5" cx="1275.32" cy="220.48" fill="rgba(255, 200, 68, 1)"></circle>
        <circle r="5" cx="1243.11" cy="405.94" fill="rgba(255, 200, 68, 1)"></circle>
        <circle r="5" cx="1260.15" cy="492.66" fill="rgba(255, 200, 68, 1)"></circle>
        <circle r="5" cx="1243.28" cy="654.38" fill="rgba(255, 200, 68, 1)"></circle>
        <circle r="5" cx="1452.63" cy="-64.48" fill="rgba(255, 200, 68, 1)"></circle>
        <circle r="5" cx="1443.54" cy="57.59" fill="rgba(255, 200, 68, 1)"></circle>
        <circle r="5" cx="1451.56" cy="350.63" fill="rgba(255, 200, 68, 1)"></circle>
        <circle r="5" cx="1401.54" cy="511.74" fill="rgba(255, 200, 68, 1)"></circle>
        <circle r="5" cx="1431.2" cy="690.14" fill="rgba(255, 200, 68, 1)"></circle>
        <circle r="5" cx="1549.63" cy="-87.9" fill="rgba(255, 200, 68, 1)"></circle>
        <circle r="5" cx="1580.53" cy="85.81" fill="rgba(255, 200, 68, 1)"></circle>
        <circle r="5" cx="1581.67" cy="222.57" fill="rgba(255, 200, 68, 1)"></circle>
        <circle r="5" cx="1606.2" cy="407.87" fill="rgba(255, 200, 68, 1)"></circle>
        <circle r="5" cx="1566.49" cy="555.44" fill="rgba(255, 200, 68, 1)"></circle>
        <circle r="5" cx="1570.22" cy="650.9" fill="rgba(255, 200, 68, 1)"></circle>
        <path d="M208.72 651.08L208.72 651.08" stroke="hsl(0, 0%, 100%)" stroke-width="1.5"></path>
        <path d="M208.72 651.08L99.54 686.58" stroke="hsl(0, 0%, 100%)" stroke-width="1.5"></path>
        <path d="M208.72 651.08L230.19 516.59" stroke="hsl(0, 0%, 100%)" stroke-width="1.5"></path>
        <path d="M208.72 651.08L347.42 646.78" stroke="hsl(0, 0%, 100%)" stroke-width="1.5"></path>
        <path d="M208.72 651.08L71.78 503.92" stroke="hsl(0, 0%, 100%)" stroke-width="1.5"></path>
        <path d="M208.72 651.08L385.03 527.19" stroke="hsl(0, 0%, 100%)" stroke-width="1.5"></path>
        <path d="M208.72 651.08L-67.44 693.27" stroke="hsl(0, 0%, 100%)" stroke-width="1.5"></path>
        <path d="M660.07 549.54L660.07 549.54" stroke="hsl(0, 0%, 100%)" stroke-width="1.5"></path>
        <path d="M660.07 549.54L529.2 543.48" stroke="hsl(0, 0%, 100%)" stroke-width="1.5"></path>
        <path d="M660.07 549.54L808.83 526.97" stroke="hsl(0, 0%, 100%)" stroke-width="1.5"></path>
        <path d="M660.07 549.54L694.32 391.58" stroke="hsl(0, 0%, 100%)" stroke-width="1.5"></path>
        <path d="M660.07 549.54L709.65 704.52" stroke="hsl(0, 0%, 100%)" stroke-width="1.5"></path>
        <path d="M857.88 698.9L857.88 698.9" stroke="hsl(0, 0%, 100%)" stroke-width="1.5"></path>
        <path d="M857.88 698.9L709.65 704.52" stroke="hsl(0, 0%, 100%)" stroke-width="1.5"></path>
        <path d="M857.88 698.9L808.83 526.97" stroke="hsl(0, 0%, 100%)" stroke-width="1.5"></path>
        <path d="M857.88 698.9L952.44 544.97" stroke="hsl(0, 0%, 100%)" stroke-width="1.5"></path>
        <path d="M857.88 698.9L1093.78 656.55" stroke="hsl(0, 0%, 100%)" stroke-width="1.5"></path>
        <path d="M857.88 698.9L660.07 549.54" stroke="hsl(0, 0%, 100%)" stroke-width="1.5"></path>
        <path d="M1158.18 213.03L1158.18 213.03" stroke="hsl(0, 0%, 100%)" stroke-width="1.5"></path>
        <path d="M1158.18 213.03L1308.78 242" stroke="hsl(0, 0%, 100%)" stroke-width="1.5"></path>
        <path d="M1158.18 213.03L1130.14 372.31" stroke="hsl(0, 0%, 100%)" stroke-width="1.5"></path>
        <path d="M1093.78 656.55L1093.78 656.55" stroke="hsl(0, 0%, 100%)" stroke-width="1.5"></path>
        <path d="M1093.78 656.55L1092.45 536.14" stroke="hsl(0, 0%, 100%)" stroke-width="1.5"></path>
        <path d="M1093.78 656.55L952.44 544.97" stroke="hsl(0, 0%, 100%)" stroke-width="1.5"></path>
        <path d="M1093.78 656.55L1284.62 681.93" stroke="hsl(0, 0%, 100%)" stroke-width="1.5"></path>
        <path d="M1093.78 656.55L1260.91 505.21" stroke="hsl(0, 0%, 100%)" stroke-width="1.5"></path>
        <path d="M1093.78 656.55L1130.14 372.31" stroke="hsl(0, 0%, 100%)" stroke-width="1.5"></path>
        <path d="M1268.22 76.07L1268.22 76.07" stroke="hsl(0, 0%, 100%)" stroke-width="1.5"></path>
        <path d="M1268.22 76.07L1311.18 -70.67" stroke="hsl(0, 0%, 100%)" stroke-width="1.5"></path>
        <path d="M1268.22 76.07L1308.78 242" stroke="hsl(0, 0%, 100%)" stroke-width="1.5"></path>
        <path d="M1268.22 76.07L1443.6 77.37" stroke="hsl(0, 0%, 100%)" stroke-width="1.5"></path>
        <path d="M1308.78 242L1308.78 242" stroke="hsl(0, 0%, 100%)" stroke-width="1.5"></path>
        <path d="M1308.78 242L1446.18 198.77" stroke="hsl(0, 0%, 100%)" stroke-width="1.5"></path>
        <path d="M1308.78 242L1430.72 354.5" stroke="hsl(0, 0%, 100%)" stroke-width="1.5"></path>
        <path d="M1430.72 354.5L1430.72 354.5" stroke="hsl(0, 0%, 100%)" stroke-width="1.5"></path>
        <path d="M1430.72 354.5L1584.31 357.48" stroke="hsl(0, 0%, 100%)" stroke-width="1.5"></path>
        <path d="M1430.72 354.5L1446.18 198.77" stroke="hsl(0, 0%, 100%)" stroke-width="1.5"></path>
        <path d="M1419.78 647.39L1419.78 647.39" stroke="hsl(0, 0%, 100%)" stroke-width="1.5"></path>
        <path d="M1419.78 647.39L1404.26 534.44" stroke="hsl(0, 0%, 100%)" stroke-width="1.5"></path>
        <path d="M1419.78 647.39L1284.62 681.93" stroke="hsl(0, 0%, 100%)" stroke-width="1.5"></path>
        <path d="M1419.78 647.39L1575.32 703.98" stroke="hsl(0, 0%, 100%)" stroke-width="1.5"></path>
        <path d="M1419.78 647.39L1555.2 550.73" stroke="hsl(0, 0%, 100%)" stroke-width="1.5"></path>
        <path d="M1419.78 647.39L1260.91 505.21" stroke="hsl(0, 0%, 100%)" stroke-width="1.5"></path>
        <path d="M-39.78 518.68L-39.78 518.68" stroke="hsl(0, 0%, 100%)" stroke-width="1.5"></path>
        <path d="M-39.78 518.68L71.78 503.92" stroke="hsl(0, 0%, 100%)" stroke-width="1.5"></path>
        <path d="M-67.44 693.27L-67.44 693.27" stroke="hsl(0, 0%, 100%)" stroke-width="1.5"></path>
        <path d="M-67.44 693.27L99.54 686.58" stroke="hsl(0, 0%, 100%)" stroke-width="1.5"></path>
        <path d="M-67.44 693.27L-39.78 518.68" stroke="hsl(0, 0%, 100%)" stroke-width="1.5"></path>
        <path d="M-67.44 693.27L71.78 503.92" stroke="hsl(0, 0%, 100%)" stroke-width="1.5"></path>
        <path d="M71.78 503.92L71.78 503.92" stroke="hsl(0, 0%, 100%)" stroke-width="1.5"></path>
        <path d="M99.54 686.58L99.54 686.58" stroke="hsl(0, 0%, 100%)" stroke-width="1.5"></path>
        <path d="M99.54 686.58L71.78 503.92" stroke="hsl(0, 0%, 100%)" stroke-width="1.5"></path>
        <path d="M230.19 516.59L230.19 516.59" stroke="hsl(0, 0%, 100%)" stroke-width="1.5"></path>
        <path d="M230.19 516.59L385.03 527.19" stroke="hsl(0, 0%, 100%)" stroke-width="1.5"></path>
        <path d="M230.19 516.59L71.78 503.92" stroke="hsl(0, 0%, 100%)" stroke-width="1.5"></path>
        <path d="M230.19 516.59L347.42 646.78" stroke="hsl(0, 0%, 100%)" stroke-width="1.5"></path>
        <path d="M230.19 516.59L99.54 686.58" stroke="hsl(0, 0%, 100%)" stroke-width="1.5"></path>
        <path d="M230.19 516.59L-39.78 518.68" stroke="hsl(0, 0%, 100%)" stroke-width="1.5"></path>
        <path d="M385.03 527.19L385.03 527.19" stroke="hsl(0, 0%, 100%)" stroke-width="1.5"></path>
        <path d="M385.03 527.19L347.42 646.78" stroke="hsl(0, 0%, 100%)" stroke-width="1.5"></path>
        <path d="M385.03 527.19L529.2 543.48" stroke="hsl(0, 0%, 100%)" stroke-width="1.5"></path>
        <path d="M347.42 646.78L347.42 646.78" stroke="hsl(0, 0%, 100%)" stroke-width="1.5"></path>
        <path d="M529.2 543.48L529.2 543.48" stroke="hsl(0, 0%, 100%)" stroke-width="1.5"></path>
        <path d="M529.2 543.48L538.51 687.55" stroke="hsl(0, 0%, 100%)" stroke-width="1.5"></path>
        <path d="M529.2 543.48L347.42 646.78" stroke="hsl(0, 0%, 100%)" stroke-width="1.5"></path>
        <path d="M529.2 543.48L694.32 391.58" stroke="hsl(0, 0%, 100%)" stroke-width="1.5"></path>
        <path d="M538.51 687.55L538.51 687.55" stroke="hsl(0, 0%, 100%)" stroke-width="1.5"></path>
        <path d="M538.51 687.55L709.65 704.52" stroke="hsl(0, 0%, 100%)" stroke-width="1.5"></path>
        <path d="M538.51 687.55L660.07 549.54" stroke="hsl(0, 0%, 100%)" stroke-width="1.5"></path>
        <path d="M538.51 687.55L347.42 646.78" stroke="hsl(0, 0%, 100%)" stroke-width="1.5"></path>
        <path d="M538.51 687.55L385.03 527.19" stroke="hsl(0, 0%, 100%)" stroke-width="1.5"></path>
        <path d="M538.51 687.55L808.83 526.97" stroke="hsl(0, 0%, 100%)" stroke-width="1.5"></path>
        <path d="M694.32 391.58L694.32 391.58" stroke="hsl(0, 0%, 100%)" stroke-width="1.5"></path>
        <path d="M694.32 391.58L858.5 352.6" stroke="hsl(0, 0%, 100%)" stroke-width="1.5"></path>
        <path d="M694.32 391.58L808.83 526.97" stroke="hsl(0, 0%, 100%)" stroke-width="1.5"></path>
        <path d="M694.32 391.58L963.6 361.8" stroke="hsl(0, 0%, 100%)" stroke-width="1.5"></path>
        <path d="M694.32 391.58L952.44 544.97" stroke="hsl(0, 0%, 100%)" stroke-width="1.5"></path>
        <path d="M709.65 704.52L709.65 704.52" stroke="hsl(0, 0%, 100%)" stroke-width="1.5"></path>
        <path d="M709.65 704.52L808.83 526.97" stroke="hsl(0, 0%, 100%)" stroke-width="1.5"></path>
        <path d="M858.5 352.6L858.5 352.6" stroke="hsl(0, 0%, 100%)" stroke-width="1.5"></path>
        <path d="M858.5 352.6L963.6 361.8" stroke="hsl(0, 0%, 100%)" stroke-width="1.5"></path>
        <path d="M808.83 526.97L808.83 526.97" stroke="hsl(0, 0%, 100%)" stroke-width="1.5"></path>
        <path d="M808.83 526.97L952.44 544.97" stroke="hsl(0, 0%, 100%)" stroke-width="1.5"></path>
        <path d="M963.6 361.8L963.6 361.8" stroke="hsl(0, 0%, 100%)" stroke-width="1.5"></path>
        <path d="M963.6 361.8L1130.14 372.31" stroke="hsl(0, 0%, 100%)" stroke-width="1.5"></path>
        <path d="M952.44 544.97L952.44 544.97" stroke="hsl(0, 0%, 100%)" stroke-width="1.5"></path>
        <path d="M952.44 544.97L1092.45 536.14" stroke="hsl(0, 0%, 100%)" stroke-width="1.5"></path>
        <path d="M952.44 544.97L963.6 361.8" stroke="hsl(0, 0%, 100%)" stroke-width="1.5"></path>
        <path d="M952.44 544.97L858.5 352.6" stroke="hsl(0, 0%, 100%)" stroke-width="1.5"></path>
        <path d="M1130.14 372.31L1130.14 372.31" stroke="hsl(0, 0%, 100%)" stroke-width="1.5"></path>
        <path d="M1130.14 372.31L1092.45 536.14" stroke="hsl(0, 0%, 100%)" stroke-width="1.5"></path>
        <path d="M1092.45 536.14L1092.45 536.14" stroke="hsl(0, 0%, 100%)" stroke-width="1.5"></path>
        <path d="M1092.45 536.14L1260.91 505.21" stroke="hsl(0, 0%, 100%)" stroke-width="1.5"></path>
        <path d="M1092.45 536.14L963.6 361.8" stroke="hsl(0, 0%, 100%)" stroke-width="1.5"></path>
        <path d="M1092.45 536.14L1284.62 681.93" stroke="hsl(0, 0%, 100%)" stroke-width="1.5"></path>
        <path d="M1311.18 -70.67L1311.18 -70.67" stroke="hsl(0, 0%, 100%)" stroke-width="1.5"></path>
        <path d="M1311.18 -70.67L1459.1 -56.79" stroke="hsl(0, 0%, 100%)" stroke-width="1.5"></path>
        <path d="M1311.18 -70.67L1443.6 77.37" stroke="hsl(0, 0%, 100%)" stroke-width="1.5"></path>
        <path d="M1260.91 505.21L1260.91 505.21" stroke="hsl(0, 0%, 100%)" stroke-width="1.5"></path>
        <path d="M1260.91 505.21L1404.26 534.44" stroke="hsl(0, 0%, 100%)" stroke-width="1.5"></path>
        <path d="M1260.91 505.21L1284.62 681.93" stroke="hsl(0, 0%, 100%)" stroke-width="1.5"></path>
        <path d="M1260.91 505.21L1130.14 372.31" stroke="hsl(0, 0%, 100%)" stroke-width="1.5"></path>
        <path d="M1284.62 681.93L1284.62 681.93" stroke="hsl(0, 0%, 100%)" stroke-width="1.5"></path>
        <path d="M1284.62 681.93L1404.26 534.44" stroke="hsl(0, 0%, 100%)" stroke-width="1.5"></path>
        <path d="M1459.1 -56.79L1459.1 -56.79" stroke="hsl(0, 0%, 100%)" stroke-width="1.5"></path>
        <path d="M1459.1 -56.79L1443.6 77.37" stroke="hsl(0, 0%, 100%)" stroke-width="1.5"></path>
        <path d="M1459.1 -56.79L1588.29 -98.24" stroke="hsl(0, 0%, 100%)" stroke-width="1.5"></path>
        <path d="M1459.1 -56.79L1562.68 48.53" stroke="hsl(0, 0%, 100%)" stroke-width="1.5"></path>
        <path d="M1459.1 -56.79L1268.22 76.07" stroke="hsl(0, 0%, 100%)" stroke-width="1.5"></path>
        <path d="M1443.6 77.37L1443.6 77.37" stroke="hsl(0, 0%, 100%)" stroke-width="1.5"></path>
        <path d="M1443.6 77.37L1446.18 198.77" stroke="hsl(0, 0%, 100%)" stroke-width="1.5"></path>
        <path d="M1446.18 198.77L1446.18 198.77" stroke="hsl(0, 0%, 100%)" stroke-width="1.5"></path>
        <path d="M1446.18 198.77L1572.69 244.41" stroke="hsl(0, 0%, 100%)" stroke-width="1.5"></path>
        <path d="M1446.18 198.77L1562.68 48.53" stroke="hsl(0, 0%, 100%)" stroke-width="1.5"></path>
        <path d="M1446.18 198.77L1584.31 357.48" stroke="hsl(0, 0%, 100%)" stroke-width="1.5"></path>
        <path d="M1404.26 534.44L1404.26 534.44" stroke="hsl(0, 0%, 100%)" stroke-width="1.5"></path>
        <path d="M1588.29 -98.24L1588.29 -98.24" stroke="hsl(0, 0%, 100%)" stroke-width="1.5"></path>
        <path d="M1588.29 -98.24L1562.68 48.53" stroke="hsl(0, 0%, 100%)" stroke-width="1.5"></path>
        <path d="M1588.29 -98.24L1443.6 77.37" stroke="hsl(0, 0%, 100%)" stroke-width="1.5"></path>
        <path d="M1588.29 -98.24L1311.18 -70.67" stroke="hsl(0, 0%, 100%)" stroke-width="1.5"></path>
        <path d="M1588.29 -98.24L1446.18 198.77" stroke="hsl(0, 0%, 100%)" stroke-width="1.5"></path>
        <path d="M1562.68 48.53L1562.68 48.53" stroke="hsl(0, 0%, 100%)" stroke-width="1.5"></path>
        <path d="M1562.68 48.53L1443.6 77.37" stroke="hsl(0, 0%, 100%)" stroke-width="1.5"></path>
        <path d="M1572.69 244.41L1572.69 244.41" stroke="hsl(0, 0%, 100%)" stroke-width="1.5"></path>
        <path d="M1572.69 244.41L1584.31 357.48" stroke="hsl(0, 0%, 100%)" stroke-width="1.5"></path>
        <path d="M1572.69 244.41L1430.72 354.5" stroke="hsl(0, 0%, 100%)" stroke-width="1.5"></path>
        <path d="M1572.69 244.41L1562.68 48.53" stroke="hsl(0, 0%, 100%)" stroke-width="1.5"></path>
        <path d="M1584.31 357.48L1584.31 357.48" stroke="hsl(0, 0%, 100%)" stroke-width="1.5"></path>
        <path d="M1584.31 357.48L1555.2 550.73" stroke="hsl(0, 0%, 100%)" stroke-width="1.5"></path>
        <path d="M1584.31 357.48L1404.26 534.44" stroke="hsl(0, 0%, 100%)" stroke-width="1.5"></path>
        <path d="M1555.2 550.73L1555.2 550.73" stroke="hsl(0, 0%, 100%)" stroke-width="1.5"></path>
        <path d="M1555.2 550.73L1404.26 534.44" stroke="hsl(0, 0%, 100%)" stroke-width="1.5"></path>
        <path d="M1555.2 550.73L1575.32 703.98" stroke="hsl(0, 0%, 100%)" stroke-width="1.5"></path>
        <path d="M1575.32 703.98L1575.32 703.98" stroke="hsl(0, 0%, 100%)" stroke-width="1.5"></path>
        <circle r="25" cx="208.72" cy="651.08" fill="url(&quot;#SvgjsRadialGradient2256&quot;)"></circle>
        <circle r="25" cx="660.07" cy="549.54" fill="url(&quot;#SvgjsRadialGradient2256&quot;)"></circle>
        <circle r="25" cx="857.88" cy="698.9" fill="url(&quot;#SvgjsRadialGradient2256&quot;)"></circle>
        <circle r="25" cx="1158.18" cy="213.03" fill="url(&quot;#SvgjsRadialGradient2256&quot;)"></circle>
        <circle r="25" cx="1093.78" cy="656.55" fill="url(&quot;#SvgjsRadialGradient2256&quot;)"></circle>
        <circle r="25" cx="1268.22" cy="76.07" fill="url(&quot;#SvgjsRadialGradient2256&quot;)"></circle>
        <circle r="25" cx="1308.78" cy="242" fill="url(&quot;#SvgjsRadialGradient2256&quot;)"></circle>
        <circle r="25" cx="1430.72" cy="354.5" fill="url(&quot;#SvgjsRadialGradient2256&quot;)"></circle>
        <circle r="25" cx="1419.78" cy="647.39" fill="url(&quot;#SvgjsRadialGradient2256&quot;)"></circle>
        <circle r="5" cx="-39.78" cy="518.68" fill="#ffffff"></circle>
        <circle r="5" cx="-67.44" cy="693.27" fill="#ffffff"></circle>
        <circle r="5" cx="71.78" cy="503.92" fill="#ffffff"></circle>
        <circle r="5" cx="99.54" cy="686.58" fill="#ffffff"></circle>
        <circle r="5" cx="230.19" cy="516.59" fill="#ffffff"></circle>
        <circle r="5" cx="385.03" cy="527.19" fill="#ffffff"></circle>
        <circle r="5" cx="347.42" cy="646.78" fill="#ffffff"></circle>
        <circle r="5" cx="529.2" cy="543.48" fill="#ffffff"></circle>
        <circle r="5" cx="538.51" cy="687.55" fill="#ffffff"></circle>
        <circle r="5" cx="694.32" cy="391.58" fill="#ffffff"></circle>
        <circle r="5" cx="709.65" cy="704.52" fill="#ffffff"></circle>
        <circle r="5" cx="858.5" cy="352.6" fill="#ffffff"></circle>
        <circle r="5" cx="808.83" cy="526.97" fill="#ffffff"></circle>
        <circle r="5" cx="963.6" cy="361.8" fill="#ffffff"></circle>
        <circle r="5" cx="952.44" cy="544.97" fill="#ffffff"></circle>
        <circle r="5" cx="1130.14" cy="372.31" fill="#ffffff"></circle>
        <circle r="5" cx="1092.45" cy="536.14" fill="#ffffff"></circle>
        <circle r="5" cx="1311.18" cy="-70.67" fill="#ffffff"></circle>
        <circle r="5" cx="1260.91" cy="505.21" fill="#ffffff"></circle>
        <circle r="5" cx="1284.62" cy="681.93" fill="#ffffff"></circle>
        <circle r="5" cx="1459.1" cy="-56.79" fill="#ffffff"></circle>
        <circle r="5" cx="1443.6" cy="77.37" fill="#ffffff"></circle>
        <circle r="5" cx="1446.18" cy="198.77" fill="#ffffff"></circle>
        <circle r="5" cx="1404.26" cy="534.44" fill="#ffffff"></circle>
        <circle r="5" cx="1588.29" cy="-98.24" fill="#ffffff"></circle>
        <circle r="5" cx="1562.68" cy="48.53" fill="#ffffff"></circle>
        <circle r="5" cx="1572.69" cy="244.41" fill="#ffffff"></circle>
        <circle r="5" cx="1584.31" cy="357.48" fill="#ffffff"></circle>
        <circle r="5" cx="1555.2" cy="550.73" fill="#ffffff"></circle>
        <circle r="5" cx="1575.32" cy="703.98" fill="#ffffff"></circle>
    </g>
    <defs>
        <mask id="SvgjsMask2254">
            <rect width="1440" height="560" fill="#ffffff"></rect>
        </mask>
        <linearGradient x1="15.28%" y1="-39.29%" x2="84.72%" y2="139.29%" gradientUnits="userSpaceOnUse" id="SvgjsLinearGradient2255">
            <stop stop-color="rgba(255, 255, 255, 1)" offset="0.04"></stop>
            <stop stop-color="rgba(253, 220, 150, 1)" offset="0.99"></stop>
        </linearGradient>
        <radialGradient id="SvgjsRadialGradient2256">
            <stop stop-color="#ffffff" offset="0.1"></stop>
            <stop stop-color="rgba(255, 255, 255, 1)" offset="0.2"></stop>
            <stop stop-color="rgba(255, 255, 255, 0)" offset="1"></stop>
        </radialGradient>
    </defs>
</svg>